<svg xmlns="http://www.w3.org/2000/svg" viewBox="0 0 600 720" fill="none">
  <defs>
    <linearGradient id="bg" x1="300" y1="0" x2="300" y2="720" gradientUnits="userSpaceOnUse">
      <stop stop-color="#132033"/>
      <stop offset="1" stop-color="#0B1220"/>
    </linearGradient>
  </defs>
  <rect width="600" height="720" rx="44" fill="url(#bg)"/>
  <circle cx="300" cy="250" r="122" fill="#1E293B"/>
  <path d="M206 588C206 523.935 257.935 472 322 472H332C396.065 472 448 523.935 448 588V612H206V588Z" fill="#1E293B"/>
  <circle cx="300" cy="250" r="88" fill="#E2E8F0" fill-opacity="0.08"/>
  <path d="M259 236C259 203.968 284.968 178 317 178C349.032 178 375 203.968 375 236V274C375 306.032 349.032 332 317 332C284.968 332 259 306.032 259 274V236Z" fill="#CBD5E1"/>
  <path d="M256 232C256 194.997 285.997 165 323 165H333C370.003 165 400 194.997 400 232V260H256V232Z" fill="#334155"/>
  <path d="M229 612C229 551.801 277.801 503 338 503C398.199 503 447 551.801 447 612" stroke="#2EE6D6" stroke-width="4" stroke-linecap="round"/>
  <circle cx="172" cy="156" r="16" fill="#22D3EE" fill-opacity="0.8"/>
  <circle cx="454" cy="110" r="10" fill="#2EE6D6" fill-opacity="0.65"/>
  <circle cx="474" cy="594" r="22" fill="#22D3EE" fill-opacity="0.18"/>
  <path d="M89 655H511" stroke="#22D3EE" stroke-opacity="0.25" stroke-width="2" stroke-linecap="round"/>
  <text x="72" y="672" fill="#94A3B8" font-family="Arial, sans-serif" font-size="28">Software Engineer</text>
</svg>
